<?xml version="1.0" standalone="no"?>
<!DOCTYPE svg PUBLIC "-//W3C//DTD SVG 20010904//EN"
 "http://www.w3.org/TR/2001/REC-SVG-20010904/DTD/svg10.dtd">
<svg version="1.0" xmlns="http://www.w3.org/2000/svg"
 width="1398.000000pt" height="810.000000pt" viewBox="0 0 1398.000000 810.000000"
 preserveAspectRatio="xMidYMid meet">
<metadata>
Created by potrace 1.16, written by Peter Selinger 2001-2019
</metadata>
<g transform="translate(0.000000,810.000000) scale(0.100000,-0.100000)"
fill="#000000" stroke="none">
<path d="M7265 7794 c-419 -62 -728 -209 -1009 -483 -149 -146 -248 -278 -347
-464 l-46 -88 -12 43 c-6 24 -10 63 -9 88 4 57 -20 65 -66 22 -17 -16 -52 -42
-78 -56 -51 -29 -108 -88 -108 -110 0 -23 90 -96 155 -127 47 -23 74 -29 125
-29 77 0 150 -28 150 -58 0 -10 -9 -27 -21 -38 -19 -17 -21 -18 -30 -1 -9 15
-26 17 -124 17 -75 0 -115 -4 -115 -11 0 -6 -13 -1 -29 10 -52 37 -135 71
-174 71 -34 0 -40 -4 -53 -35 -7 -19 -14 -55 -14 -81 0 -49 155 -795 172 -827
20 -39 195 -87 314 -87 94 0 142 -31 153 -98 6 -37 7 -37 51 -34 109 8 251 2
282 -12 18 -7 65 -39 103 -71 39 -31 88 -66 110 -77 96 -50 68 -57 -235 -58
l-238 0 -19 23 c-10 13 -43 72 -73 130 l-55 107 -85 1 c-47 1 -91 1 -98 0 -7
-1 -26 7 -42 19 -50 35 -113 60 -158 60 -40 0 -44 -3 -58 -35 -30 -72 -10
-173 66 -333 149 -313 392 -591 687 -785 144 -95 183 -111 323 -136 257 -45
337 -52 793 -61 247 -5 452 -12 456 -14 4 -3 57 -6 117 -7 125 -2 180 14 358
103 383 192 704 518 886 900 76 160 96 261 66 333 -14 32 -18 35 -58 35 -45 0
-108 -25 -158 -60 -16 -12 -35 -20 -42 -19 -7 1 -51 1 -98 0 l-85 -1 -55 -107
c-30 -58 -63 -117 -73 -130 l-19 -23 -238 0 c-303 1 -331 8 -235 58 22 11 72
46 110 77 39 32 85 64 103 71 31 14 173 20 282 12 44 -3 45 -3 51 34 11 67 59
98 151 98 129 0 294 46 317 88 16 30 171 777 171 826 0 26 -7 62 -14 81 -13
31 -19 35 -53 35 -39 0 -122 -34 -174 -71 -16 -11 -29 -16 -29 -10 0 7 -40 11
-115 11 -98 0 -115 -2 -124 -17 -9 -17 -11 -16 -30 1 -12 11 -21 28 -21 38 0
30 73 58 150 58 51 0 78 6 125 29 65 31 155 104 155 127 0 22 -57 81 -108 110
-26 14 -61 40 -78 56 -46 43 -70 35 -66 -22 1 -25 -3 -64 -9 -88 l-12 -43 -46
88 c-225 424 -582 729 -1020 873 -168 55 -286 72 -501 75 -107 2 -208 1 -225
-1z m-426 -496 c-18 -35 -42 -90 -54 -123 l-23 -60 -226 0 c-181 -1 -223 2
-215 12 6 7 27 15 48 19 20 4 86 25 146 47 92 34 123 41 189 41 l79 1 24 44
c21 41 51 81 60 81 2 0 -11 -28 -28 -62z m1274 -18 l24 -45 79 -1 c66 0 97 -7
189 -41 61 -22 126 -43 146 -47 21 -4 42 -12 48 -19 8 -10 -34 -13 -215 -12
l-226 0 -23 60 c-12 33 -37 89 -55 125 -25 51 -28 61 -11 45 11 -11 31 -40 44
-65z m-817 -77 c54 -36 73 -54 73 -70 l1 -23 -187 1 c-104 0 -197 4 -207 8
-16 6 4 20 95 69 63 34 123 61 133 62 11 0 52 -21 92 -47z m552 -15 c92 -49
112 -63 96 -69 -10 -4 -103 -8 -206 -8 l-188 -1 1 23 c0 16 19 35 72 69 40 26
80 48 90 48 10 0 71 -28 135 -62z m-1393 -509 c81 -59 155 -89 222 -89 67 0
143 -24 143 -45 0 -31 -30 -38 -160 -36 -112 2 -130 0 -130 -13 0 -19 -8 -20
-40 -1 -35 20 -73 18 -103 -5 -14 -11 -30 -20 -35 -20 -5 0 -12 9 -15 20 -5
18 -14 20 -90 20 -76 0 -85 -2 -93 -21 -10 -21 -10 -21 -42 6 -18 15 -32 33
-32 41 0 22 78 102 128 131 104 61 176 65 247 12z m698 28 c18 -8 52 -39 76
-70 23 -31 51 -59 62 -62 10 -3 46 -1 79 6 57 11 140 8 227 -7 34 -7 35 -6
125 94 48 53 90 62 150 33 48 -23 178 -136 178 -154 0 -7 -16 -22 -35 -35 -19
-12 -35 -18 -35 -12 0 6 -44 10 -115 10 -94 0 -116 -3 -123 -16 -8 -15 -12
-15 -40 0 -42 22 -78 20 -112 -4 l-29 -21 -11 21 c-9 17 -21 20 -90 20 -69 0
-81 -3 -90 -20 -11 -20 -11 -20 -44 5 -40 30 -55 31 -105 5 -33 -16 -40 -17
-45 -5 -4 12 -28 15 -121 15 -71 0 -115 -4 -115 -10 0 -6 -16 0 -35 12 -19 13
-35 28 -35 35 0 17 129 130 175 153 47 24 65 25 108 7z m1529 -23 c57 -29 158
-122 158 -146 0 -9 -14 -28 -32 -43 -32 -27 -32 -27 -42 -6 -8 19 -17 21 -93
21 -76 0 -85 -2 -90 -20 -7 -25 -11 -25 -48 0 -35 23 -82 25 -109 5 -25 -19
-36 -19 -36 1 0 13 -18 15 -130 13 -130 -2 -160 5 -160 36 0 21 76 45 143 45
70 0 140 28 206 81 69 55 142 59 233 13z m-1780 -1035 c17 -22 32 -54 35 -78
5 -39 3 -43 -48 -90 -42 -39 -56 -47 -62 -35 -6 11 -30 14 -102 14 -85 0 -95
2 -109 22 -22 30 -7 51 72 102 37 24 85 58 106 75 49 39 70 37 108 -10z m1235
3 c26 -21 74 -55 105 -75 69 -44 83 -65 62 -95 -14 -20 -24 -22 -109 -22 -72
0 -96 -3 -102 -14 -13 -24 -113 74 -113 111 0 51 56 133 91 133 9 0 39 -17 66
-38z m-620 -87 c65 -27 86 -58 64 -93 -6 -10 -38 -13 -121 -13 -83 0 -115 3
-121 13 -22 34 -1 65 61 92 45 20 72 20 117 1z m-372 -155 c14 -5 59 -39 101
-75 41 -36 86 -71 99 -77 27 -12 33 -43 11 -51 -8 -3 -115 -6 -239 -7 -249 -1
-224 -7 -242 59 -4 14 0 21 17 26 12 4 50 36 85 71 56 57 67 64 102 64 22 0
51 -4 66 -10z m793 -47 c31 -32 69 -67 83 -78 24 -18 26 -24 18 -53 l-10 -33
-225 1 c-125 1 -232 4 -240 7 -22 8 -16 39 11 51 13 6 58 41 100 77 85 74 103
83 163 84 40 1 48 -4 100 -56z m-1413 -445 c121 -30 143 -42 236 -133 52 -52
106 -94 137 -108 45 -21 117 -87 95 -87 -20 0 -159 51 -227 84 -105 51 -243
144 -317 215 -72 69 -77 67 76 29z m1948 -28 c-113 -107 -293 -215 -446 -269
-49 -17 -93 -31 -99 -31 -23 0 48 65 94 87 31 14 86 57 137 107 47 46 97 89
110 96 22 11 235 69 256 69 6 0 -18 -26 -52 -59z m-1376 -21 c90 -35 108 -49
135 -104 33 -64 76 -120 108 -139 25 -14 30 -23 30 -57 0 -37 -2 -40 -22 -33
-67 20 -149 86 -220 176 -50 63 -126 188 -114 188 3 0 40 -14 83 -31z m797 -1
c-74 -143 -203 -283 -298 -323 -47 -20 -46 -21 -46 24 0 34 5 42 36 61 23 15
51 49 80 100 25 43 53 85 62 93 15 14 156 75 175 76 4 1 0 -14 -9 -31z"/>
<path d="M11839 4065 c-20 -7 -55 -25 -77 -39 l-41 -26 -1318 -2 -1318 -3 -59
-23 c-131 -49 -287 -160 -396 -279 -73 -80 -177 -233 -218 -320 l-29 -61 0 41
c0 114 -26 364 -39 385 -25 39 -78 22 -120 -39 l-27 -39 -36 61 c-75 127 -184
208 -338 252 -78 22 -79 22 -1139 25 l-1060 3 -12 -26 c-11 -25 -13 -25 -41
-10 -17 8 -37 15 -46 15 -8 0 -15 5 -15 10 0 7 -206 10 -598 10 l-599 0 -12
-27 -12 -26 -43 42 c-48 47 -100 67 -139 52 -31 -12 -36 -21 -72 -131 -16 -47
-40 -112 -55 -145 -15 -33 -46 -114 -69 -180 -23 -66 -57 -156 -76 -200 -18
-44 -43 -111 -56 -150 -12 -38 -31 -90 -42 -115 -34 -75 -97 -244 -97 -261 0
-9 13 -34 29 -57 34 -46 84 -67 137 -58 41 8 40 3 -19 -94 -59 -98 -111 -163
-164 -201 l-48 -34 -490 -3 -489 -3 -30 -27 c-127 -119 -301 -342 -499 -640
l-133 -200 -65 29 c-48 21 -80 29 -127 29 -63 0 -63 0 -78 -35 -35 -84 -7
-174 54 -176 15 0 337 0 715 1 614 1 694 -1 738 -15 45 -15 53 -15 96 -1 28
10 80 16 133 16 78 0 93 -3 144 -31 l58 -30 91 32 92 31 205 -3 c194 -2 212
-1 332 26 l127 28 53 -24 53 -24 755 -5 c587 -4 760 -8 777 -18 13 -7 30 -26
38 -42 19 -36 10 -53 -45 -93 -34 -24 -47 -27 -115 -27 -74 0 -76 -1 -88 -28
-8 -18 -18 -26 -29 -24 -16 3 -16 5 -2 28 l16 24 -204 0 -205 0 -53 -122 c-56
-129 -65 -146 -76 -135 -4 4 16 60 45 124 28 65 51 121 51 126 0 4 -32 7 -70
7 -65 0 -71 -2 -82 -25 -8 -17 -19 -25 -36 -25 l-25 0 23 25 23 25 -172 0
c-151 0 -176 -2 -210 -20 -45 -22 -75 -57 -93 -106 -6 -19 -18 -34 -25 -34
-14 0 -12 6 26 93 12 27 21 53 21 58 0 6 -30 9 -71 7 l-71 -3 -55 -128 c-32
-73 -62 -127 -69 -127 -18 0 -18 3 10 58 48 96 50 92 -51 92 l-89 0 -37 -38
c-20 -21 -37 -41 -37 -45 0 -4 16 -7 36 -7 24 0 34 -4 31 -12 -7 -20 -57 -11
-83 13 -30 28 -30 51 0 86 23 27 28 28 134 31 l110 4 38 39 38 39 -173 0
c-138 0 -180 -3 -207 -16 -43 -21 -93 -77 -101 -115 -10 -49 -33 -36 -33 19 0
37 -5 53 -23 70 -36 34 -72 42 -195 42 -111 0 -119 -2 -169 -30 -65 -37 -103
-87 -110 -142 -3 -24 -11 -46 -17 -50 -17 -12 -226 -10 -226 2 0 12 100 63
158 80 57 18 62 26 51 89 -11 73 -27 88 -71 70 -18 -7 -69 -15 -113 -18 l-80
-6 -47 -105 c-26 -58 -49 -109 -51 -115 -2 -5 -7 -7 -11 -4 -4 4 9 37 28 74
42 77 44 102 15 139 -31 40 -61 48 -110 31 -31 -11 -92 -15 -244 -15 l-202 0
-11 -25 c-6 -14 -19 -25 -27 -25 -14 0 -14 3 1 25 l16 25 -183 0 c-167 0 -186
-2 -209 -20 -34 -27 -54 -27 -40 0 11 20 8 20 -191 20 l-201 0 -33 -33 -33
-33 -66 34 c-39 21 -86 37 -114 40 -43 4 -51 1 -66 -19 -36 -52 -14 -105 59
-142 53 -27 228 -68 239 -57 15 15 189 13 184 -2 -3 -9 -40 -14 -129 -16 -118
-3 -125 -4 -151 -29 l-27 -25 -68 32 c-37 17 -91 34 -119 37 -48 5 -53 3 -69
-20 -24 -38 -30 -98 -14 -169 11 -53 20 -70 59 -109 37 -37 58 -49 99 -58 37
-8 391 -11 1223 -10 966 1 1180 3 1224 15 46 12 63 12 116 -1 53 -12 218 -14
1038 -12 925 2 977 3 1012 20 36 18 39 18 90 0 50 -17 100 -18 798 -18 410 0
765 1 790 2 25 1 238 0 475 -2 359 -4 439 -3 487 10 51 13 65 13 115 0 48 -13
248 -15 1369 -15 873 0 1330 3 1360 10 59 13 152 78 192 133 19 28 36 68 45
113 10 48 25 86 49 120 55 78 73 179 43 251 -15 35 -15 36 -66 31 -31 -3 -77
-19 -120 -42 l-70 -36 -202 0 -203 0 -55 -127 c-40 -92 -60 -129 -74 -132 -17
-3 -18 -1 -6 13 12 15 4 16 -97 16 -85 0 -110 3 -107 13 8 19 174 94 225 101
81 12 91 43 32 106 -43 44 -84 52 -132 25 -15 -9 -54 -14 -101 -15 l-77 0 -52
-122 c-54 -126 -65 -146 -76 -135 -4 3 16 59 45 123 28 64 51 121 51 126 0 5
-32 8 -72 6 l-72 -3 -52 -120 c-33 -75 -59 -121 -69 -123 -14 -3 -15 0 -5 18
6 11 10 31 8 44 -1 12 7 35 20 50 28 36 28 75 1 110 l-20 26 -183 0 -183 0
-49 -115 c-26 -63 -54 -115 -61 -115 -16 0 -17 -1 7 45 37 72 21 137 -40 167
-28 14 -61 18 -156 18 -109 0 -125 -2 -172 -26 -59 -29 -101 -78 -111 -127 -4
-19 -14 -33 -24 -35 -14 -3 -11 11 19 80 20 46 38 89 41 95 4 10 -17 13 -88
13 l-94 -1 -75 -69 c-41 -37 -77 -67 -81 -64 -4 2 -12 33 -19 69 l-12 65 -93
0 -92 0 -30 -67 -30 -68 5 47 c4 43 2 50 -27 79 -28 28 -36 30 -69 24 -20 -4
-125 -9 -233 -12 -179 -4 -199 -6 -215 -24 -9 -10 -26 -19 -38 -19 -15 0 -17
3 -8 12 7 7 12 16 12 20 0 4 -92 8 -204 8 l-204 0 -51 -117 c-29 -65 -49 -104
-45 -88 4 17 10 50 14 75 4 24 13 46 19 48 22 7 10 37 -22 60 -41 27 -100 29
-147 4 -33 -18 -35 -18 -54 0 -18 16 -39 18 -202 18 l-182 0 -12 -35 c-9 -28
-14 -32 -25 -22 -11 10 -11 16 1 35 l15 22 -208 -2 -207 -3 -53 -120 c-29 -66
-54 -124 -56 -129 -2 -5 -8 -7 -14 -5 -8 3 8 50 43 128 30 68 54 125 54 127 0
2 -33 4 -73 4 l-73 0 -48 -115 c-48 -114 -49 -115 -82 -115 -19 0 -34 3 -34 6
0 3 20 52 45 108 25 57 45 107 45 110 0 4 -32 6 -72 4 l-71 -3 -47 -105 c-45
-102 -60 -120 -89 -101 -13 8 -10 23 18 98 19 48 36 94 38 100 4 10 -13 13
-66 13 l-72 0 -30 -62 c-27 -59 -29 -60 -23 -24 5 37 3 41 -49 90 l-55 51 35
48 c55 73 69 78 287 88 200 9 326 25 528 64 104 20 131 30 201 72 88 52 130
91 326 308 165 182 247 281 415 498 76 98 145 181 154 184 24 10 187 -25 270
-58 41 -16 92 -32 113 -34 21 -2 49 -11 61 -19 21 -15 13 -16 -114 -16 l-136
0 -59 -58 c-139 -137 -463 -529 -584 -705 -33 -48 -65 -87 -70 -87 -5 0 -33
12 -62 26 -32 17 -75 29 -113 32 -58 4 -63 3 -78 -21 -9 -14 -20 -42 -23 -62
-7 -43 5 -57 91 -101 43 -23 64 -26 205 -32 155 -7 158 -8 207 -40 63 -40 84
-40 141 1 l45 32 436 3 c378 2 441 1 483 -13 45 -15 53 -15 99 0 41 14 73 16
168 11 64 -4 140 -6 167 -5 28 0 219 2 425 3 446 4 592 15 750 57 63 17 125
33 137 36 61 14 249 258 329 428 68 143 86 223 91 413 5 145 3 173 -17 255
-13 51 -36 118 -51 149 -24 47 -38 61 -81 85 -29 15 -52 33 -52 38 1 6 30 20
65 32 56 20 76 35 182 140 269 267 661 761 686 865 15 64 14 122 -3 163 -14
32 -19 35 -53 34 -21 0 -54 -6 -74 -14z m-6621 -222 l3 -23 -385 0 c-310 0
-386 3 -386 13 0 36 17 37 395 35 l370 -3 3 -22z m2497 17 c120 -20 235 -100
265 -183 10 -30 8 -29 -34 16 -25 25 -67 58 -95 72 -110 55 -94 55 -1138 55
-912 0 -962 1 -956 18 4 9 11 20 17 24 17 12 1871 10 1941 -2z m3610 -15 c0
-20 -8 -20 -1115 -25 l-1115 -5 -75 -36 c-83 -40 -205 -133 -270 -206 l-42
-48 44 64 c80 118 232 236 342 266 42 11 243 13 1141 12 1083 -2 1090 -2 1090
-22z m159 -42 c-66 -102 -340 -418 -482 -555 l-101 -98 -709 0 c-646 0 -710 1
-716 16 -17 44 -22 43 728 46 l711 3 103 83 c56 46 102 87 102 91 0 3 36 45
81 91 129 135 206 236 213 280 5 32 12 40 43 53 21 9 40 16 42 16 2 1 -5 -11
-15 -26z m-4800 -225 c3 -13 6 -43 6 -68 0 -36 -6 -50 -31 -76 -17 -18 -30
-37 -27 -44 3 -9 43 37 67 78 6 10 14 11 27 4 11 -5 30 -15 44 -21 57 -27 79
-43 121 -88 24 -27 48 -47 52 -45 4 1 -2 -11 -13 -27 -13 -17 -20 -38 -17 -52
4 -24 4 -24 6 1 0 16 19 44 50 74 l50 49 87 -6 c99 -6 96 -4 183 -134 58 -85
94 -172 115 -276 16 -77 21 -231 9 -300 l-6 -39 -113 113 c-107 107 -114 112
-114 84 0 -23 15 -44 66 -96 66 -67 67 -67 67 -124 0 -47 -5 -61 -27 -84 -24
-25 -26 -33 -26 -125 l0 -99 -80 -81 -79 -81 -71 70 -70 69 0 82 c0 60 -4 85
-15 94 -8 7 -15 20 -15 29 0 32 -53 71 -95 71 -33 0 -47 7 -81 41 l-43 42 -41
-36 c-23 -19 -66 -46 -96 -59 l-54 -23 0 -51 c0 -43 -4 -55 -30 -79 -20 -19
-30 -39 -30 -57 0 -21 -11 -39 -37 -63 l-37 -33 3 -101 c2 -97 -6 -123 -26
-87 -4 8 -49 57 -99 109 l-92 94 -62 -138 c-35 -77 -69 -144 -76 -150 -23 -19
-82 -15 -111 8 -47 34 -42 70 27 217 34 70 58 131 55 134 -3 3 -69 9 -146 12
l-141 5 151 149 151 149 -62 56 c-35 30 -89 81 -122 111 l-58 56 12 75 c25
150 94 295 197 415 44 50 50 54 92 54 24 0 73 11 109 26 35 14 91 28 124 32
l59 7 -50 39 c-28 21 -51 40 -51 43 0 2 17 11 38 20 62 26 202 52 288 52 77 1
82 0 88 -21z m3206 -517 l495 -6 60 -29 c68 -33 168 -128 203 -192 21 -39 17
-37 -52 32 -52 53 -94 83 -142 106 l-69 33 -471 5 -471 5 -41 28 c-43 28 -56
46 -24 31 9 -4 240 -10 512 -13z m953 -109 c71 -38 97 -73 97 -130 -1 -26 -7
-60 -14 -77 l-13 -30 -33 65 c-18 36 -51 92 -74 125 -63 91 -62 88 -35 80 13
-4 46 -19 72 -33z m-2125 -412 c168 -111 219 -120 717 -120 249 0 403 -4 415
-10 12 -6 17 -16 13 -26 -5 -13 -59 -15 -457 -12 -439 3 -453 4 -510 25 -94
36 -164 82 -243 160 -74 73 -105 128 -35 61 20 -19 65 -54 100 -78z m-4810
-47 c-53 -78 -168 -185 -238 -223 l-65 -35 -467 -3 -467 -3 -107 -112 c-59
-62 -96 -96 -83 -76 38 58 144 192 174 219 l27 25 467 5 467 5 79 39 c62 31
98 58 160 122 44 45 81 82 83 83 2 1 -12 -20 -30 -46z m3930 5 c-116 -164
-340 -408 -473 -518 -203 -166 -451 -286 -725 -349 -240 -56 -498 -71 -1240
-71 -482 0 -620 5 -620 20 0 30 72 34 805 41 708 6 779 9 950 40 331 58 622
190 865 392 112 93 276 259 374 380 80 97 108 126 64 65z m2138 -231 c4 -4 0
-15 -9 -25 -16 -16 -73 -17 -766 -20 l-749 -3 -71 -74 c-38 -41 -73 -70 -76
-65 -3 5 -1 11 4 14 4 3 11 18 14 34 4 20 15 31 40 40 20 7 46 30 65 56 18 25
42 47 55 49 38 8 1485 2 1493 -6z m-5366 -273 c-45 -64 -145 -169 -210 -219
-122 -94 -262 -153 -444 -187 -105 -19 -154 -21 -941 -25 -456 -2 -864 0 -905
5 l-75 8 40 19 c38 19 77 20 935 26 l895 5 105 26 c58 14 130 36 160 48 148
58 318 174 412 280 29 33 54 60 56 60 1 0 -11 -21 -28 -46z m5991 -234 c-129
-121 -239 -176 -379 -191 -98 -10 -2187 -13 -2305 -3 -43 4 -77 10 -77 13 0 4
19 13 43 21 35 11 251 15 1232 19 1129 6 1193 7 1240 25 71 26 116 50 166 88
132 101 175 116 80 28z m-4317 -632 c16 -45 -8 -82 -74 -117 -54 -29 -64 -31
-164 -31 -63 0 -106 4 -106 10 0 5 26 23 58 39 31 16 95 52 142 80 95 58 129
62 144 19z m-1096 -92 c15 -9 -17 -86 -36 -86 -8 0 -12 6 -9 14 5 11 -13 15
-88 18 -76 2 -97 7 -115 23 l-22 20 44 12 c43 12 206 12 226 -1z"/>
<path d="M6330 3404 c-14 -2 -49 -9 -78 -15 l-54 -11 26 -27 c14 -15 26 -37
26 -50 0 -18 4 -22 18 -16 9 4 43 10 75 13 56 4 57 5 41 23 -12 13 -15 29 -11
54 4 24 2 35 -6 34 -7 -1 -23 -3 -37 -5z"/>
<path d="M6881 2943 c0 -16 3 -22 6 -15 6 16 93 16 93 0 0 -7 12 -25 28 -42
l27 -29 -37 28 c-30 22 -38 24 -38 11 0 -12 -10 -16 -40 -16 -29 0 -40 4 -40
15 0 8 -7 15 -15 15 -10 0 -15 -10 -15 -27 0 -18 3 -23 8 -16 6 10 17 10 42 3
19 -6 49 -10 67 -10 17 0 33 -4 35 -9 5 -13 216 -23 239 -10 10 5 19 19 19 30
0 18 -5 20 -40 18 -35 -3 -45 2 -83 39 -41 41 -79 53 -92 31 -4 -5 0 -18 9
-28 19 -21 21 -51 3 -51 -16 0 -77 62 -77 78 0 8 -18 12 -50 12 -48 0 -50 -1
-49 -27z"/>
<path d="M6721 2808 c-33 -33 -51 -45 -47 -33 5 17 4 18 -6 4 -77 -96 -144
-143 -228 -160 -53 -10 -60 -14 -60 -35 0 -22 4 -24 43 -24 31 0 49 -6 61 -19
18 -19 18 -19 64 0 25 11 66 35 91 53 l45 33 -3 63 -3 63 53 53 c69 69 60 70
-10 2z"/>
</g>
</svg>
